<mxfile host="app.diagrams.net" agent="Mozilla/5.0 (Windows NT 10.0; Win64; x64) AppleWebKit/537.36 (KHTML, like Gecko) Chrome/138.0.0.0 Safari/537.36 Edg/138.0.0.0" version="28.0.6">
  <diagram name="第 1 页" id="ZRQ9Jx72VUhaNWx92Uvu">
    <mxGraphModel dx="938" dy="614" grid="1" gridSize="10" guides="1" tooltips="1" connect="1" arrows="1" fold="1" page="1" pageScale="1" pageWidth="827" pageHeight="1169" math="0" shadow="0">
      <root>
        <mxCell id="0" />
        <mxCell id="1" parent="0" />
        <mxCell id="TS9z1rpk0AXKb7ABOjCM-16" value="" style="rounded=0;whiteSpace=wrap;html=1;fillColor=none;dashed=1;dashPattern=8 8;fontSize=14;strokeColor=light-dark(#000000,#FF9933);" parent="1" vertex="1">
          <mxGeometry x="510" y="130" width="400" height="240" as="geometry" />
        </mxCell>
        <mxCell id="TS9z1rpk0AXKb7ABOjCM-3" value="" style="edgeStyle=orthogonalEdgeStyle;rounded=0;orthogonalLoop=1;jettySize=auto;html=1;fontSize=14;" parent="1" source="TS9z1rpk0AXKb7ABOjCM-1" target="TS9z1rpk0AXKb7ABOjCM-2" edge="1">
          <mxGeometry relative="1" as="geometry" />
        </mxCell>
        <mxCell id="TS9z1rpk0AXKb7ABOjCM-1" value="Kafka集群&lt;div&gt;（源系统数据）&lt;/div&gt;" style="rounded=0;whiteSpace=wrap;html=1;fontSize=14;fillColor=#60a917;fontColor=#ffffff;strokeColor=#2D7600;" parent="1" vertex="1">
          <mxGeometry x="350" y="290" width="120" height="60" as="geometry" />
        </mxCell>
        <mxCell id="TS9z1rpk0AXKb7ABOjCM-5" value="" style="edgeStyle=orthogonalEdgeStyle;rounded=0;orthogonalLoop=1;jettySize=auto;html=1;fontSize=14;" parent="1" source="TS9z1rpk0AXKb7ABOjCM-2" target="TS9z1rpk0AXKb7ABOjCM-4" edge="1">
          <mxGeometry relative="1" as="geometry" />
        </mxCell>
        <mxCell id="TS9z1rpk0AXKb7ABOjCM-2" value="Flink实时计算引擎" style="rounded=0;whiteSpace=wrap;html=1;fontSize=14;fillColor=#0050ef;fontColor=#ffffff;strokeColor=#001DBC;" parent="1" vertex="1">
          <mxGeometry x="550" y="290" width="120" height="60" as="geometry" />
        </mxCell>
        <mxCell id="TS9z1rpk0AXKb7ABOjCM-7" value="" style="edgeStyle=orthogonalEdgeStyle;rounded=0;orthogonalLoop=1;jettySize=auto;html=1;fontSize=14;" parent="1" source="TS9z1rpk0AXKb7ABOjCM-4" target="TS9z1rpk0AXKb7ABOjCM-6" edge="1">
          <mxGeometry relative="1" as="geometry" />
        </mxCell>
        <mxCell id="TS9z1rpk0AXKb7ABOjCM-11" style="edgeStyle=orthogonalEdgeStyle;rounded=0;orthogonalLoop=1;jettySize=auto;html=1;exitX=0.25;exitY=0;exitDx=0;exitDy=0;entryX=0.25;entryY=1;entryDx=0;entryDy=0;fontSize=14;" parent="1" source="TS9z1rpk0AXKb7ABOjCM-4" target="TS9z1rpk0AXKb7ABOjCM-8" edge="1">
          <mxGeometry relative="1" as="geometry" />
        </mxCell>
        <mxCell id="TS9z1rpk0AXKb7ABOjCM-4" value="Hudi表&lt;div&gt;（实时写入）&lt;/div&gt;" style="rounded=0;whiteSpace=wrap;html=1;fontSize=14;fillColor=#1ba1e2;fontColor=#ffffff;strokeColor=#006EAF;" parent="1" vertex="1">
          <mxGeometry x="750" y="290" width="120" height="60" as="geometry" />
        </mxCell>
        <mxCell id="TS9z1rpk0AXKb7ABOjCM-6" value="多元查询引擎&lt;div&gt;（下游）&lt;/div&gt;" style="rounded=0;whiteSpace=wrap;html=1;fontSize=14;fillColor=#6a00ff;fontColor=#ffffff;strokeColor=#3700CC;" parent="1" vertex="1">
          <mxGeometry x="950" y="290" width="120" height="60" as="geometry" />
        </mxCell>
        <mxCell id="TS9z1rpk0AXKb7ABOjCM-12" style="edgeStyle=orthogonalEdgeStyle;rounded=0;orthogonalLoop=1;jettySize=auto;html=1;exitX=0.75;exitY=1;exitDx=0;exitDy=0;entryX=0.75;entryY=0;entryDx=0;entryDy=0;fontSize=14;" parent="1" source="TS9z1rpk0AXKb7ABOjCM-8" target="TS9z1rpk0AXKb7ABOjCM-4" edge="1">
          <mxGeometry relative="1" as="geometry" />
        </mxCell>
        <mxCell id="TS9z1rpk0AXKb7ABOjCM-8" value="小文件合并&lt;div&gt;（调度）&lt;/div&gt;" style="whiteSpace=wrap;html=1;rounded=0;fontSize=14;fillColor=#fa6800;fontColor=light-dark(#000000,#000000);strokeColor=#C73500;" parent="1" vertex="1">
          <mxGeometry x="750" y="150" width="120" height="60" as="geometry" />
        </mxCell>
        <mxCell id="TS9z1rpk0AXKb7ABOjCM-17" value="Topics" style="text;html=1;align=center;verticalAlign=middle;whiteSpace=wrap;rounded=0;fontSize=14;fontColor=light-dark(#000000,#000000);" parent="1" vertex="1">
          <mxGeometry x="480" y="290" width="60" height="30" as="geometry" />
        </mxCell>
        <mxCell id="TS9z1rpk0AXKb7ABOjCM-18" value="&lt;div&gt;实时数据湖&lt;/div&gt;主要功能模块" style="text;html=1;align=center;verticalAlign=middle;whiteSpace=wrap;rounded=0;fontSize=14;fontColor=light-dark(#000000,#000000);" parent="1" vertex="1">
          <mxGeometry x="530" y="150" width="100" height="40" as="geometry" />
        </mxCell>
      </root>
    </mxGraphModel>
  </diagram>
</mxfile>
